<?xml version="1.0" encoding="UTF-8" standalone="no"?>
<!-- Created with Inkscape (http://www.inkscape.org/) -->

<svg
   width="210mm"
   height="297mm"
   viewBox="0 0 210 297"
   version="1.1"
   id="svg5"
   sodipodi:docname="automatic-save-0-2024_01_02_22_27_21-2172-1.svg"
   inkscape:version="1.2.2 (732a01da63, 2022-12-09)"
   xmlns:inkscape="http://www.inkscape.org/namespaces/inkscape"
   xmlns:sodipodi="http://sodipodi.sourceforge.net/DTD/sodipodi-0.dtd"
   xmlns="http://www.w3.org/2000/svg"
   xmlns:svg="http://www.w3.org/2000/svg">
  <sodipodi:namedview
     id="namedview7"
     pagecolor="#ffffff"
     bordercolor="#000000"
     borderopacity="0.25"
     inkscape:showpageshadow="2"
     inkscape:pageopacity="0.0"
     inkscape:pagecheckerboard="0"
     inkscape:deskcolor="#d1d1d1"
     inkscape:document-units="mm"
     showgrid="false"
     inkscape:zoom="0.74564394"
     inkscape:cx="396.97231"
     inkscape:cy="240.06096"
     inkscape:window-width="1920"
     inkscape:window-height="1017"
     inkscape:window-x="-8"
     inkscape:window-y="-8"
     inkscape:window-maximized="1"
     inkscape:current-layer="layer1" />
  <defs
     id="defs2">
    <linearGradient
       id="linearGradient17182"
       inkscape:swatch="solid">
      <stop
         style="stop-color:#00ff00;stop-opacity:1;"
         offset="0"
         id="stop17180" />
    </linearGradient>
  </defs>
  <g
     inkscape:label="Camada 1"
     inkscape:groupmode="layer"
     id="layer1">
    <path
       style="fill:#dda6a8;stroke:none;stroke-width:0.264583px;stroke-linecap:butt;stroke-linejoin:miter;stroke-opacity:1;fill-opacity:1"
       d="m -41.149053,141.7635 c 0,-1.00363 -0.08363,-0.2509 2.25818,-0.2509 19.654527,0 39.30905441,0 58.963581,0 22.916342,0 45.832684,0 68.749027,0 7.610901,0 15.221805,0 22.832705,0 3.68,0 7.36852,0.25032 11.03999,0 1.77008,-0.12069 3.51552,-0.48295 5.26909,-0.75273 2.69112,-0.41402 5.68397,-0.82921 8.27999,-1.75636 6.46191,-2.30783 14.28706,-8.01435 19.06907,-12.79636 2.18448,-2.18448 3.96073,-4.69374 6.27272,-6.77454 1.28504,-1.15653 2.7295,-2.10527 4.01454,-3.26181 2.02104,-1.81894 3.95392,-3.74751 6.02182,-5.52 0.90252,-0.77359 1.89819,-1.43946 2.76,-2.25817 0.81577,-0.77499 1.48432,-1.69224 2.25817,-2.50909 2.20242,-2.32478 4.90282,-4.53839 6.27272,-7.527269 0.66063,-1.441479 0.99313,-3.837184 0.75273,-5.519994 -0.10905,-0.763339 -0.42112,-1.49133 -0.50182,-2.25818 -0.0875,-0.831767 0.0477,-1.674087 0,-2.509088 -0.15425,-2.699417 -0.40703,-8.484246 -1.00363,-11.541808 -5.08324,-26.051583 0.88536,5.374524 -3.26182,-12.043626 -0.47134,-1.979621 -0.62633,-4.022135 -1.00363,-6.021811 -1.16805,-6.190671 -1.67269,-6.523006 -2.00727,-12.043627 -0.20796,-3.431257 0.11407,-6.866459 0.2509,-10.287262 0.0735,-1.838529 -0.15939,-3.686913 0,-5.519994 0.19769,-2.273348 1.23929,-6.631443 2.00728,-8.781811 1.21379,-3.398625 3.13575,-6.471999 4.51636,-9.785445 1.83645,-4.4074948 2.00727,-8.138882 2.00727,-12.79635156 0,-0.34697294 -0.38519,-4.90154594 -0.50182,-5.01817714 -0.23656,-0.236559 -0.67075,0.033289 -1.00364,0 -5.76172,-0.5761718 4.47726,0.1073285 -5.26908,-0.5018178 -5.84872,-0.3655443 -11.72065,-0.4090223 -17.56362,-0.7527263 -1.59511,-0.09383 -3.17492,-0.3691221 -4.76727,-0.5018178 -1.83553,-0.1529618 -3.69071,-0.035699 -5.52,-0.2509088 -0.68495,-0.080583 -1.32452,-0.4042818 -2.00726,-0.5018178 -0.49678,-0.070968 -1.00804,0.066322 -1.50546,0 -0.76432,-0.1019098 -1.49484,-0.3927694 -2.25818,-0.5018177 -2.0765,-0.2966437 -4.19621,-0.2051741 -6.27272,-0.5018178 -4.85935,-0.6941923 -9.7171,-1.6557443 -14.55271,-2.5090883 -2.06104,-0.363713 -6.37208,0 -8.27999,0 -7.19273,0 -14.38545,0 -21.578167,0 -19.989072,0 -39.978144,0 -59.967217,0 -8.512039,0 -19.760344,-0.06992 -28.1017911,0.250909 -2.390467,0.09194 -3.5463322,0.357994 -5.5199949,0.752726 -0.08363629,0.752727 0.05988444,1.567528 -0.25090886,2.2581798 -0.46682119,1.0373805 -1.35491354,1.8280585 -2.00727084,2.7599975 -0.99803,1.4257571 -2.0765506,2.7971772 -3.0109063,4.2654506 -0.7240274,1.13775727 -1.2592052,2.39062544 -2.0072709,3.512724 -1.2620278,1.8930416 -2.7278781,3.6436106 -4.0145421,5.5199948 -1.509117,2.2007962 -2.767079,4.5664133 -4.26545,6.7745393 -0.587361,0.865585 -3.051688,4.096104 -3.763633,5.519995 -0.736759,1.473518 -1.300424,3.02826 -2.007271,4.516359 -5.895073,12.410681 0.601817,-2.357682 -6.021813,13.29817 -2.034805,4.809541 -4.161007,9.57667 -5.770903,14.552713 -1.910176,5.904179 -0.886252,3.397689 -2.509089,10.538172 -4.263116,18.757711 1.942769,-9.880669 -2.759997,9.785446 -0.515008,2.153667 -0.805897,4.355168 -1.254545,6.52363 -0.555067,2.682828 -1.258986,5.334964 -1.756362,8.029084 -1.028594,5.571551 -1.414154,11.251999 -2.509088,16.810896 -0.533143,2.70672 -1.359961,5.34737 -2.007271,8.02908 -0.947274,3.92442 -2.046782,7.81909 -2.759997,11.79272 -0.785624,4.37704 -0.632854,8.93517 -1.505454,13.29817 -0.140142,0.70071 -0.556414,1.32017 -0.752726,2.00727 -0.139762,0.48916 -0.101296,1.01921 -0.250909,1.50545 -0.638836,2.07622 -1.535328,3.81147 -1.756362,6.02181 -0.04993,0.49933 0,1.00364 0,1.50546 0,0.16727 -0.164997,0.47431 0,0.50181 1.455883,0.24265 5.735163,0.27951 7.025448,-0.75272 0.257182,-0.20575 0.478347,-1.43504 0.501818,-1.50546 0.49205,-1.47615 0.572122,-1.22454 1.254544,-2.75999 0.173203,-0.38971 0.06019,-0.87311 0.250909,-1.25455 0.149613,-0.29922 0.679079,0.0811 1.003635,0 0.181433,-0.0454 0.334545,-0.16727 0.501818,-0.25091 0.418181,-0.0836 0.836363,-0.16727 1.254544,-0.25091 z"
       id="path22587" />
    <rect
       style="fill:#6b352f;fill-opacity:1;stroke-width:2.90335;stroke-linejoin:bevel;paint-order:stroke fill markers"
       id="rect234-4"
       width="33.294891"
       height="25.100889"
       x="19.30731"
       y="15.850119"
       ry="7.8888512" />
    <rect
       style="fill:#7f4d46;fill-opacity:1;stroke-width:2.765;stroke-linejoin:bevel;paint-order:stroke fill markers"
       id="rect234"
       width="30.222982"
       height="21.808311"
       x="20.898844"
       y="16.047897"
       ry="7.8064518" />
    <circle
       style="fill:#d09f8f;fill-opacity:1;fill-rule:evenodd;stroke-width:0.264583"
       id="path20945"
       cx="81.419922"
       cy="29.628143"
       r="15.807259" />
    <circle
       style="fill:#dabfa6;fill-opacity:1;stroke-width:2.60278;stroke-linejoin:bevel;paint-order:stroke fill markers"
       id="path13559"
       cx="81.584679"
       cy="29.583788"
       r="13.521791" />
    <path
       sodipodi:type="spiral"
       style="fill:none;fill-opacity:1;fill-rule:evenodd;stroke:#825b4f;stroke-width:1.565;stroke-dasharray:none;stroke-opacity:1"
       id="path15171"
       sodipodi:cx="73.533897"
       sodipodi:cy="19.331152"
       sodipodi:expansion="1"
       sodipodi:revolution="2"
       sodipodi:radius="11.594617"
       sodipodi:argument="-17.972731"
       sodipodi:t0="0.16"
       d="m 71.73835,19.797573 c -1.034654,-1.190003 -0.243064,-2.962846 0.964735,-3.66474 2.006116,-1.165824 4.493416,0.03957 5.431903,2.003116 1.332584,2.788099 -0.319169,6.042276 -3.041496,7.199065 -3.560813,1.513084 -7.59869,-0.596897 -8.966228,-4.079876 -1.700071,-4.329905 0.873531,-9.159002 5.118256,-10.733392 5.097246,-1.8905926 10.721601,1.1495 12.500554,6.156638 1.43129,4.028585 0.241503,8.600016 -2.79632,11.565692"
       transform="translate(6.4467424,10.597734)" />
    <rect
       style="fill:#edebe9;fill-opacity:1;stroke:none;stroke-width:1.565;stroke-linejoin:bevel;stroke-dasharray:none;stroke-opacity:1;paint-order:stroke fill markers"
       id="rect27064"
       width="23.261681"
       height="36.621445"
       x="24.483099"
       y="50.070221"
       rx="10.794003"
       ry="12.52322" />
    <rect
       style="fill:#b99789;fill-opacity:1;stroke:none;stroke-width:1.7788;stroke-linejoin:bevel;stroke-dasharray:none;stroke-opacity:1;paint-order:stroke fill markers"
       id="rect27064-5"
       width="25.883768"
       height="42.517803"
       x="24.364874"
       y="48.037319"
       rx="12.010717"
       ry="14.539563" />
    <rect
       style="fill:#ebe4d5;fill-opacity:1;stroke:none;stroke-width:1.565;stroke-linejoin:bevel;stroke-dasharray:none;stroke-opacity:1;paint-order:stroke fill markers"
       id="rect30135"
       width="23.261681"
       height="36.621445"
       x="25.580496"
       y="48.225601"
       rx="10.794003"
       ry="12.52322" />
    <rect
       style="fill:#603536;fill-opacity:1;stroke:none;stroke-width:1.565;stroke-linejoin:bevel;stroke-dasharray:none;stroke-opacity:1;paint-order:stroke fill markers"
       id="rect47626-3"
       width="23.229992"
       height="38.190117"
       x="29.726938"
       y="82.363235"
       rx="6.0526829"
       ry="7.8085179"
       transform="rotate(-26.598929)" />
    <rect
       style="fill:#784245;fill-opacity:1;stroke:none;stroke-width:1.565;stroke-linejoin:bevel;stroke-dasharray:none;stroke-opacity:1;paint-order:stroke fill markers"
       id="rect47626"
       width="23.229992"
       height="38.190117"
       x="29.834093"
       y="78.882126"
       rx="6.0526829"
       ry="7.8085179"
       transform="rotate(-26.598929)" />
  </g>
</svg>
